<?xml version="1.0" encoding="utf-8"?>
<svg xmlns="http://www.w3.org/2000/svg" width="492" height="492" viewBox="0 0 492 492" xmlns:bx="https://boxy-svg.com">
  <defs>
    <radialGradient id="bg" cx="50%" cy="38%" r="74%">
      <stop offset="0" stop-color="#1a4d5d"/>
      <stop offset="0.55" stop-color="#103745"/>
      <stop offset="1" stop-color="#091f28"/>
    </radialGradient>
    <linearGradient id="gold" x1="0.36" y1="0.04" x2="0.56" y2="0.98">
      <stop offset="0" stop-color="#FBE183"/>
      <stop offset="0.26" stop-color="#F4C84F"/>
      <stop offset="0.58" stop-color="#EFAC2E"/>
      <stop offset="1" stop-color="#D98E1C"/>
    </linearGradient>
    <linearGradient id="goldhi" x1="0" y1="0" x2="0" y2="1">
      <stop offset="0" stop-color="#FFF1BC" stop-opacity="0.85"/>
      <stop offset="0.22" stop-color="#FFF1BC" stop-opacity="0"/>
    </linearGradient>
    <linearGradient id="ball" x1="0" y1="-1" x2="0" y2="1" gradientUnits="objectBoundingBox">
      <stop offset="0" stop-color="#2ecbc4"/>
      <stop offset="0.55" stop-color="#17a3a1"/>
      <stop offset="1" stop-color="#0b7b7f"/>
    </linearGradient>
    <radialGradient id="ballshine" cx="32%" cy="20%" r="72%">
      <stop offset="0" stop-color="#a6f2e8" stop-opacity="0.6"/>
      <stop offset="0.46" stop-color="#a6f2e8" stop-opacity="0"/>
    </radialGradient>
    <clipPath id="round">
      <rect x="6" y="6" width="480" height="480" rx="112"/>
    </clipPath>
    <bx:export>
      <bx:file format="png" path="conch128.png" width="128" height="128"/>
    </bx:export>
  </defs>
  <g clip-path="url(#round)">
    <rect width="492" height="492" fill="url(#bg)" opacity="1"/>
    <g transform="matrix(0.360694, 1.257874, -3.410847, 0.978046, 298.661652, 143.994583)" style="">
      <path d="M-77,0 C-77,-24.200000000000003 -34.65,-44 0,-44 C34.65,-44 77,-24.200000000000003 77,0 C77,24.200000000000003 34.65,44 0,44 C-34.65,44 -77,24.200000000000003 -77,0 Z" fill="url(#ball)" stroke="#0a484c" stroke-width="2.75"/>
      <path d="M-77,0 C-77,-24.200000000000003 -34.65,-44 0,-44 C34.65,-44 77,-24.200000000000003 77,0 C77,24.200000000000003 34.65,44 0,44 C-34.65,44 -77,24.200000000000003 -77,0 Z" fill="url(#ballshine)"/>
      <line x1="0" y1="-22.880000000000003" x2="0" y2="22.880000000000003" stroke="#EAF7F1" stroke-width="3" stroke-linecap="square"/>
      <line x1="-10.5" y1="-15.84" x2="10.5" y2="-15.84" stroke="#EAF7F1" stroke-width="1.25" stroke-linecap="square"/>
      <line x1="-10.5" y1="-7.92" x2="10.5" y2="-7.92" stroke="#EAF7F1" stroke-width="1.25" stroke-linecap="square"/>
      <line x1="-10.5" y1="0" x2="10.5" y2="0" stroke="#EAF7F1" stroke-width="1.25" stroke-linecap="square"/>
      <line x1="-10.5" y1="7.92" x2="10.5" y2="7.92" stroke="#EAF7F1" stroke-width="1.25" stroke-linecap="round"/>
      <line x1="-10.5" y1="15.84" x2="10.5" y2="15.84" stroke="#EAF7F1" stroke-width="3.6" stroke-linecap="round"/>
    </g>
    <path d="M -86.191 -47.967 L 504.741 -47.967 L 504.741 542.965 L -86.191 542.965 L -86.191 -47.967 Z M -86.191 247.499 L -86.191 -47.967 L 209.275 -47.967 L 504.741 -47.967 L 504.741 247.499 L 504.741 542.965 L 209.275 542.965 L -86.191 542.965 L -86.191 247.499 Z M 255.252 460.642 C 303.224 452.247 341.43 418.677 353.597 374.213 C 357.116 361.349 357.392 334.937 354.149 323.167 C 349.225 305.331 337.406 286.065 325.143 275.868 C 312.339 265.215 296.221 258.237 280.307 256.436 C 276.223 255.967 272.572 255.09 272.2 254.489 C 271.828 253.877 280.007 204.189 290.396 144.062 C 303.692 67.025 308.892 34.356 307.992 33.454 C 306.106 31.569 280.655 35.449 259.036 40.926 C 222.871 50.09 190.539 65.403 161.04 87.347 C 146.795 97.952 124.695 119.043 114.053 132.195 C 70.49 186.1 52.87 254.19 65.878 318.363 C 73.481 355.813 95.749 394.692 123.074 418.208 C 148.777 440.321 183.079 457.304 209.875 461.16 C 221.742 462.876 243.95 462.612 255.252 460.642 Z M 232.096 383.798 C 221.118 380.771 211.125 375.258 206.585 369.696 C 195.955 356.702 191.235 343.489 191.283 326.819 C 191.331 313.907 192.676 307.997 198.105 296.959 C 203.45 286.114 213.299 275.821 224.12 269.767 C 234.126 264.17 238.341 264.422 230.366 270.151 C 213.755 282.054 203.318 306.46 206.681 325.534 C 209.575 341.976 219.845 355.993 233.633 362.346 C 243.59 366.922 257.163 367.21 266.326 363.019 C 283.057 355.368 290.925 336.211 283.586 321.041 C 279.13 311.841 266.026 304.634 262.507 309.439 C 260.345 312.406 260.417 319.563 262.616 319.563 C 263.552 319.563 265.762 321.293 267.551 323.407 C 270.254 326.626 270.674 328.044 270.134 332.116 C 269.329 338.048 264.429 342.888 257.979 344.102 C 252.61 345.099 243.759 341.219 240.179 336.283 C 234.126 327.924 235.29 315.889 243.026 307.097 C 248.863 300.479 255.648 297.596 265.402 297.621 C 283.971 297.668 298.912 313.03 300.281 333.473 C 301.674 354.419 288.282 374.057 267.071 382.14 C 258.183 385.515 241.271 386.319 232.096 383.798 Z" fill="url(#gold)" fill-rule="evenodd" style=""/>
    <path d="M -86.191 -47.967 L 504.741 -47.967 L 504.741 542.965 L -86.191 542.965 L -86.191 -47.967 Z M -86.191 247.499 L -86.191 -47.967 L 209.275 -47.967 L 504.741 -47.967 L 504.741 247.499 L 504.741 542.965 L 209.275 542.965 L -86.191 542.965 L -86.191 247.499 Z M 255.252 460.642 C 303.224 452.247 341.43 418.677 353.597 374.213 C 357.116 361.349 357.392 334.937 354.149 323.167 C 349.225 305.331 337.406 286.065 325.143 275.868 C 312.339 265.215 296.221 258.237 280.307 256.436 C 276.223 255.967 272.572 255.09 272.2 254.489 C 271.828 253.877 280.007 204.189 290.396 144.062 C 303.692 67.025 308.892 34.356 307.992 33.454 C 306.106 31.569 280.655 35.449 259.036 40.926 C 222.871 50.09 190.539 65.403 161.04 87.347 C 146.795 97.952 124.695 119.043 114.053 132.195 C 70.49 186.1 52.87 254.19 65.878 318.363 C 73.481 355.813 95.749 394.692 123.074 418.208 C 148.777 440.321 183.079 457.304 209.875 461.16 C 221.742 462.876 243.95 462.612 255.252 460.642 Z M 232.096 383.798 C 221.118 380.771 211.125 375.258 206.585 369.696 C 195.955 356.702 191.235 343.489 191.283 326.819 C 191.331 313.907 192.676 307.997 198.105 296.959 C 203.45 286.114 213.299 275.821 224.12 269.767 C 234.126 264.17 238.341 264.422 230.366 270.151 C 213.755 282.054 203.318 306.46 206.681 325.534 C 209.575 341.976 219.845 355.993 233.633 362.346 C 243.59 366.922 257.163 367.21 266.326 363.019 C 283.057 355.368 290.925 336.211 283.586 321.041 C 279.13 311.841 266.026 304.634 262.507 309.439 C 260.345 312.406 260.417 319.563 262.616 319.563 C 263.552 319.563 265.762 321.293 267.551 323.407 C 270.254 326.626 270.674 328.044 270.134 332.116 C 269.329 338.048 264.429 342.888 257.979 344.102 C 252.61 345.099 243.759 341.219 240.179 336.283 C 234.126 327.924 235.29 315.889 243.026 307.097 C 248.863 300.479 255.648 297.596 265.402 297.621 C 283.971 297.668 298.912 313.03 300.281 333.473 C 301.674 354.419 288.282 374.057 267.071 382.14 C 258.183 385.515 241.271 386.319 232.096 383.798 Z" fill="url(#goldhi)" fill-rule="evenodd" style=""/>
  </g>
</svg>
